<svg version="1.1" id="Layer_1" xmlns="http://www.w3.org/2000/svg" xmlns:xlink="http://www.w3.org/1999/xlink" x="0px" y="0px"
	 width="100%" viewBox="0 0 1170 282" enable-background="new 0 0 1170 282" xml:space="preserve">
<path fill="#FEFEFE" opacity="1.000000" stroke="none" 
	d="
M839.000000,283.000000 
	C559.333313,283.000000 280.166656,283.000000 1.000000,283.000000 
	C1.000000,189.000000 1.000000,95.000000 1.000000,1.000000 
	C391.000000,1.000000 781.000000,1.000000 1171.000000,1.000000 
	C1171.000000,95.000000 1171.000000,189.000000 1171.000000,283.000000 
	C1060.500000,283.000000 950.000000,283.000000 839.000000,283.000000 
M726.300415,190.500107 
	C726.300415,164.057693 726.300415,137.615265 726.300415,111.135803 
	C717.595764,111.135803 709.403015,111.135803 701.335999,111.135803 
	C700.606934,115.428009 699.953064,119.277756 699.481995,122.050957 
	C693.486633,118.016563 688.026306,112.418823 681.444031,110.289764 
	C664.716309,104.879158 647.187195,111.558800 637.908875,130.196747 
	C627.758545,150.586411 627.166687,172.171356 634.681152,193.234924 
	C644.619141,221.091568 672.744995,228.040894 696.065430,209.452423 
	C696.361267,209.216644 696.923950,209.315750 697.365295,209.258102 
	C699.934448,231.082245 690.263977,239.010101 670.862122,237.301285 
	C662.393494,236.555435 654.077698,234.074066 645.359619,232.313614 
	C644.126831,237.471573 642.815369,243.443298 641.238342,249.344040 
	C640.494629,252.126953 641.157349,253.389236 643.936768,254.534897 
	C658.778259,260.652588 674.035217,262.661713 689.882935,259.943756 
	C712.592773,256.049011 726.162964,240.061203 726.292603,216.993973 
	C726.340393,208.496277 726.300415,199.998093 726.300415,190.500107 
M492.998657,154.482162 
	C493.465515,160.607956 493.253448,166.877258 494.513031,172.835449 
	C501.046539,203.741211 527.145508,222.628891 559.012878,219.924637 
	C586.575806,217.585648 608.233765,198.944382 612.000305,172.022659 
	C614.036194,157.471039 613.155273,142.471512 613.030151,127.678795 
	C612.986023,122.459663 611.814514,117.085526 610.237793,112.071449 
	C601.968872,85.775940 578.998230,70.887634 548.854736,71.934349 
	C524.309265,72.786674 502.773010,89.698296 495.785095,113.300980 
	C491.867737,126.532417 493.331055,140.053024 492.998657,154.482162 
M1032.572998,212.998322 
	C1052.144043,224.143097 1088.379761,221.174942 1101.777344,207.255615 
	C1099.369507,201.538803 1096.944946,195.782562 1094.403198,189.747818 
	C1084.416504,194.775299 1074.538818,198.250092 1063.525146,197.966705 
	C1049.237915,197.599106 1039.581055,187.534088 1040.079468,172.169128 
	C1061.076660,172.169128 1082.106567,172.169128 1103.842529,172.169128 
	C1103.219482,162.184006 1103.333252,152.796082 1101.910034,143.647232 
	C1099.329834,127.059479 1090.652588,114.399406 1073.620972,110.637245 
	C1064.778564,108.684006 1055.113159,109.154434 1045.991455,110.132545 
	C1036.833496,111.114540 1029.385620,116.453972 1023.404602,123.651955 
	C1010.761780,138.867157 1008.608765,156.652557 1010.649109,175.409744 
	C1012.328186,190.846481 1018.607483,203.791565 1032.572998,212.998322 
M876.959839,197.510590 
	C878.867065,202.995193 881.027344,208.409286 882.582764,213.991882 
	C883.459045,217.136993 884.804260,218.222839 888.064697,218.079697 
	C894.215515,217.809647 900.402222,217.737930 906.543518,218.100067 
	C910.267334,218.319641 911.683533,216.879272 912.806519,213.540192 
	C921.007874,189.154388 929.418640,164.839096 937.736694,140.492432 
	C941.054016,130.782913 944.304077,121.050423 947.797119,110.698730 
	C938.638550,110.698730 930.171997,110.812309 921.711426,110.637444 
	C918.728882,110.575790 917.445251,111.350746 916.657715,114.491051 
	C910.881409,137.524734 904.843384,160.492813 898.867615,183.476349 
	C898.582947,184.571304 898.107666,185.616714 897.902649,186.183517 
	C891.362122,162.111298 884.814636,137.925827 878.154419,113.771446 
	C877.835266,112.613953 876.539917,110.872719 875.665588,110.852470 
	C866.441711,110.638969 857.211060,110.720337 847.234558,110.720337 
	C857.284119,139.967865 867.037048,168.352295 876.959839,197.510590 
M804.001343,172.500000 
	C804.001343,187.586685 804.001343,202.673370 804.001343,217.682587 
	C814.333923,217.682587 824.062988,217.682587 833.698608,217.682587 
	C833.698608,165.992920 833.698608,114.619743 833.698608,63.317318 
	C823.666321,63.317318 813.937378,63.317318 804.001343,63.317318 
	C804.001343,99.588493 804.001343,135.544250 804.001343,172.500000 
M779.104980,126.502411 
	C779.104980,121.384789 779.104980,116.267174 779.104980,111.075027 
	C769.130615,111.075027 759.624573,111.075027 750.116760,111.075027 
	C750.116760,146.823441 750.116760,182.200104 750.116760,217.664795 
	C759.875366,217.664795 769.408691,217.664795 779.104980,217.664795 
	C779.104980,187.387955 779.104980,157.444595 779.104980,126.502411 
M961.703735,172.499893 
	C961.703735,187.569229 961.703735,202.638550 961.703735,217.704254 
	C971.582947,217.704254 980.825867,217.704254 989.885498,217.704254 
	C989.885498,181.894104 989.885498,146.378265 989.885498,110.957222 
	C980.372620,110.957222 971.272461,110.957222 961.703613,110.957222 
	C961.703613,131.304642 961.703613,151.402252 961.703735,172.499893 
M368.984528,171.500000 
	C368.984528,186.947388 368.984528,202.394775 368.984528,217.825134 
	C371.054810,217.825134 372.528229,217.825134 374.460480,217.825134 
	C374.460480,215.840256 374.460449,214.031876 374.460480,212.223495 
	C374.460541,192.060791 374.044403,171.886993 374.581268,151.738602 
	C375.087341,132.745270 386.830627,110.951729 415.783508,114.920685 
	C426.874237,116.441048 434.764313,122.584442 437.730927,133.348206 
	C439.738617,140.632767 440.682892,148.393600 440.844147,155.968201 
	C441.262482,175.622116 440.980469,195.290817 441.000549,214.953613 
	C441.001526,215.904190 441.218048,216.854553 441.363495,218.044968 
	C443.019836,217.933105 444.428101,217.837982 445.832672,217.743118 
	C445.832672,193.422897 445.982452,169.456039 445.705078,145.494141 
	C445.650269,140.757782 444.253448,135.955383 442.946594,131.332962 
	C440.588318,122.991592 435.806091,116.399971 427.896179,112.336037 
	C408.753326,102.500832 384.909729,110.520294 375.670502,129.930725 
	C374.861420,131.630524 374.002625,133.306686 372.804718,135.725143 
	C367.614563,118.921165 357.472595,109.327805 340.252716,108.546364 
	C323.410492,107.782051 311.284058,115.348801 302.272461,129.735565 
	C302.272461,123.514374 302.272461,117.293190 302.272461,110.601051 
	C300.101105,110.753143 298.733124,110.848961 297.530792,110.933182 
	C297.530792,146.870056 297.530792,182.292740 297.530792,218.011307 
	C299.288330,217.918961 300.710815,217.844223 302.460480,217.752289 
	C302.460480,215.622253 302.460449,213.804825 302.460480,211.987381 
	C302.460480,192.657852 302.547699,173.327744 302.423401,153.999023 
	C302.362061,144.460220 305.436554,135.982346 310.736603,128.316788 
	C318.791046,116.667465 332.442871,111.929062 346.866882,115.383072 
	C358.504456,118.169838 366.199402,127.150681 367.854523,141.592575 
	C368.949371,151.146072 368.656281,160.858643 368.984528,171.500000 
M205.622162,219.091064 
	C226.308228,222.319763 244.144409,217.473465 257.548279,200.361191 
	C258.549622,206.350708 259.493347,211.995407 260.455078,217.748001 
	C262.644379,217.748001 264.389130,217.748001 265.295197,217.748001 
	C264.789398,208.919800 263.991699,200.326675 263.870056,191.723984 
	C263.641693,175.571503 263.944305,159.411865 263.757599,143.258301 
	C263.620300,131.378662 260.458710,120.495277 249.250946,114.432167 
	C233.305634,105.806175 216.972061,105.820244 201.260681,115.153259 
	C194.131592,119.388138 189.436417,125.905685 188.878448,134.573853 
	C188.776749,136.153549 189.939316,137.814621 190.518250,139.438126 
	C191.568481,138.129990 193.257584,136.955093 193.562866,135.491562 
	C195.253922,127.384499 199.683212,121.446495 207.206833,118.188828 
	C218.709793,113.208160 230.550812,113.133179 242.224854,117.445648 
	C249.626343,120.179810 255.376846,125.523560 256.831360,133.328796 
	C258.323883,141.337997 258.100342,149.666992 258.649719,158.195770 
	C250.962982,158.195770 244.476181,157.972397 238.010971,158.250748 
	C229.390137,158.621872 220.659317,158.665131 212.206863,160.157898 
	C201.581528,162.034439 192.333084,167.335251 186.456085,176.699966 
	C176.605316,192.396698 185.665207,212.848206 205.622162,219.091064 
M45.998890,186.500000 
	C45.998890,149.069717 45.998890,111.639442 45.998890,73.941696 
	C43.916767,74.072342 42.489525,74.161888 41.038319,74.252945 
	C41.038319,122.275276 41.038319,169.977539 41.038319,217.615128 
	C68.790596,217.615128 96.182732,217.615128 123.872597,217.615128 
	C123.682091,215.787262 123.534500,214.371140 123.337608,212.481995 
	C97.415215,212.481995 71.832359,212.481995 45.998890,212.481995 
	C45.998890,203.813065 45.998890,195.656540 45.998890,186.500000 
M776.364075,85.103561 
	C777.274048,84.484375 778.954773,83.888908 778.974670,83.242348 
	C779.171753,76.834763 779.093994,70.418716 779.093994,64.230370 
	C768.931335,64.230370 759.517456,64.230370 750.188599,64.230370 
	C750.188599,71.315727 750.188599,78.061363 750.188599,85.104820 
	C758.780640,85.104820 767.081848,85.104820 776.364075,85.103561 
M990.296265,76.482895 
	C990.296265,72.398682 990.296265,68.314468 990.296265,64.158310 
	C980.497742,64.158310 971.289368,64.158310 961.902344,64.158310 
	C961.902344,71.145386 961.902344,77.868866 961.902344,84.762039 
	C971.440857,84.762039 980.777710,84.762039 990.296387,84.762039 
	C990.296387,82.104370 990.296387,79.788971 990.296265,76.482895 
M155.998184,210.423340 
	C155.998184,177.244690 155.998184,144.066025 155.998184,110.546211 
	C153.813019,110.775047 152.405182,110.922485 150.920807,111.077927 
	C150.920807,146.793732 150.920807,182.146957 150.920807,217.658600 
	C152.690186,217.658600 154.215500,217.658600 155.998184,217.658600 
	C155.998184,215.351273 155.998184,213.375031 155.998184,210.423340 
M155.984116,65.751656 
	C154.463272,65.012207 152.942429,64.272751 151.030243,63.343029 
	C151.030243,68.676247 151.030243,72.739418 151.030243,76.837372 
	C152.797287,76.837372 154.201706,76.837372 155.996384,76.837372 
	C155.996384,73.290855 155.996384,69.996422 155.984116,65.751656 
z"/>
<path fill="#343434" opacity="1.000000" stroke="none" 
	d="
M726.300415,191.000122 
	C726.300415,199.998093 726.340393,208.496277 726.292603,216.993973 
	C726.162964,240.061203 712.592773,256.049011 689.882935,259.943756 
	C674.035217,262.661713 658.778259,260.652588 643.936768,254.534897 
	C641.157349,253.389236 640.494629,252.126953 641.238342,249.344040 
	C642.815369,243.443298 644.126831,237.471573 645.359619,232.313614 
	C654.077698,234.074066 662.393494,236.555435 670.862122,237.301285 
	C690.263977,239.010101 699.934448,231.082245 697.365295,209.258102 
	C696.923950,209.315750 696.361267,209.216644 696.065430,209.452423 
	C672.744995,228.040894 644.619141,221.091568 634.681152,193.234924 
	C627.166687,172.171356 627.758545,150.586411 637.908875,130.196747 
	C647.187195,111.558800 664.716309,104.879158 681.444031,110.289764 
	C688.026306,112.418823 693.486633,118.016563 699.481995,122.050957 
	C699.953064,119.277756 700.606934,115.428009 701.335999,111.135803 
	C709.403015,111.135803 717.595764,111.135803 726.300415,111.135803 
	C726.300415,137.615265 726.300415,164.057693 726.300415,191.000122 
M660.668335,149.306717 
	C660.197571,158.060532 658.721008,166.901489 659.470276,175.549591 
	C660.922607,192.311996 668.503967,198.472610 683.547302,196.912369 
	C692.742310,195.958710 697.709473,190.468689 697.709473,181.259079 
	C697.709595,170.117233 697.709595,158.975372 697.709473,147.833527 
	C697.709412,139.779099 693.413818,134.172623 685.598877,132.026611 
	C673.448120,128.689987 665.152710,134.232529 660.668335,149.306717 
z"/>
<path fill="#343434" opacity="1.000000" stroke="none" 
	d="
M492.998657,153.984863 
	C493.331055,140.053024 491.867737,126.532417 495.785095,113.300980 
	C502.773010,89.698296 524.309265,72.786674 548.854736,71.934349 
	C578.998230,70.887634 601.968872,85.775940 610.237793,112.071449 
	C611.814514,117.085526 612.986023,122.459663 613.030151,127.678795 
	C613.155273,142.471512 614.036194,157.471039 612.000305,172.022659 
	C608.233765,198.944382 586.575806,217.585648 559.012878,219.924637 
	C527.145508,222.628891 501.046539,203.741211 494.513031,172.835449 
	C493.253448,166.877258 493.465515,160.607956 492.998657,153.984863 
M542.352295,195.378204 
	C562.689392,201.304443 578.604004,192.706039 583.000488,172.123306 
	C586.632507,155.119919 586.175720,137.679779 583.212280,120.587082 
	C581.393677,110.098221 575.868958,101.303474 565.311707,96.995323 
	C546.926697,89.492859 528.114990,98.881332 524.268188,118.457603 
	C520.692078,136.656097 520.943665,155.224792 524.262817,173.480591 
	C526.059387,183.362000 531.756897,191.152115 542.352295,195.378204 
z"/>
<path fill="#353535" opacity="1.000000" stroke="none" 
	d="
M1032.260498,212.810837 
	C1018.607483,203.791565 1012.328186,190.846481 1010.649109,175.409744 
	C1008.608765,156.652557 1010.761780,138.867157 1023.404602,123.651955 
	C1029.385620,116.453972 1036.833496,111.114540 1045.991455,110.132545 
	C1055.113159,109.154434 1064.778564,108.684006 1073.620972,110.637245 
	C1090.652588,114.399406 1099.329834,127.059479 1101.910034,143.647232 
	C1103.333252,152.796082 1103.219482,162.184006 1103.842529,172.169128 
	C1082.106567,172.169128 1061.076660,172.169128 1040.079468,172.169128 
	C1039.581055,187.534088 1049.237915,197.599106 1063.525146,197.966705 
	C1074.538818,198.250092 1084.416504,194.775299 1094.403198,189.747818 
	C1096.944946,195.782562 1099.369507,201.538803 1101.777344,207.255615 
	C1088.379761,221.174942 1052.144043,224.143097 1032.260498,212.810837 
M1068.442627,133.843231 
	C1054.124268,126.300102 1040.175537,135.613297 1040.088745,152.926453 
	C1051.770508,152.926453 1063.448364,152.926453 1075.179199,152.926453 
	C1075.598389,145.634415 1074.166138,139.355042 1068.442627,133.843231 
z"/>
<path fill="#343434" opacity="1.000000" stroke="none" 
	d="
M876.874939,197.123657 
	C867.037048,168.352295 857.284119,139.967865 847.234558,110.720337 
	C857.211060,110.720337 866.441711,110.638969 875.665588,110.852470 
	C876.539917,110.872719 877.835266,112.613953 878.154419,113.771446 
	C884.814636,137.925827 891.362122,162.111298 897.902649,186.183517 
	C898.107666,185.616714 898.582947,184.571304 898.867615,183.476349 
	C904.843384,160.492813 910.881409,137.524734 916.657715,114.491051 
	C917.445251,111.350746 918.728882,110.575790 921.711426,110.637444 
	C930.171997,110.812309 938.638550,110.698730 947.797119,110.698730 
	C944.304077,121.050423 941.054016,130.782913 937.736694,140.492432 
	C929.418640,164.839096 921.007874,189.154388 912.806519,213.540192 
	C911.683533,216.879272 910.267334,218.319641 906.543518,218.100067 
	C900.402222,217.737930 894.215515,217.809647 888.064697,218.079697 
	C884.804260,218.222839 883.459045,217.136993 882.582764,213.991882 
	C881.027344,208.409286 878.867065,202.995193 876.874939,197.123657 
z"/>
<path fill="#333333" opacity="1.000000" stroke="none" 
	d="
M804.001343,172.000000 
	C804.001343,135.544250 804.001343,99.588493 804.001343,63.317318 
	C813.937378,63.317318 823.666321,63.317318 833.698608,63.317318 
	C833.698608,114.619743 833.698608,165.992920 833.698608,217.682587 
	C824.062988,217.682587 814.333923,217.682587 804.001343,217.682587 
	C804.001343,202.673370 804.001343,187.586685 804.001343,172.000000 
z"/>
<path fill="#333333" opacity="1.000000" stroke="none" 
	d="
M779.104980,127.001831 
	C779.104980,157.444595 779.104980,187.387955 779.104980,217.664795 
	C769.408691,217.664795 759.875366,217.664795 750.116760,217.664795 
	C750.116760,182.200104 750.116760,146.823441 750.116760,111.075027 
	C759.624573,111.075027 769.130615,111.075027 779.104980,111.075027 
	C779.104980,116.267174 779.104980,121.384789 779.104980,127.001831 
z"/>
<path fill="#333333" opacity="1.000000" stroke="none" 
	d="
M961.703674,171.999878 
	C961.703613,151.402252 961.703613,131.304642 961.703613,110.957222 
	C971.272461,110.957222 980.372620,110.957222 989.885498,110.957222 
	C989.885498,146.378265 989.885498,181.894104 989.885498,217.704254 
	C980.825867,217.704254 971.582947,217.704254 961.703735,217.704254 
	C961.703735,202.638550 961.703735,187.569229 961.703674,171.999878 
z"/>
<path fill="#636363" opacity="1.000000" stroke="none" 
	d="
M368.984528,171.000000 
	C368.656281,160.858643 368.949371,151.146072 367.854523,141.592575 
	C366.199402,127.150681 358.504456,118.169838 346.866882,115.383072 
	C332.442871,111.929062 318.791046,116.667465 310.736603,128.316788 
	C305.436554,135.982346 302.362061,144.460220 302.423401,153.999023 
	C302.547699,173.327744 302.460480,192.657852 302.460480,211.987381 
	C302.460449,213.804825 302.460480,215.622253 302.460480,217.752289 
	C300.710815,217.844223 299.288330,217.918961 297.530792,218.011307 
	C297.530792,182.292740 297.530792,146.870056 297.530792,110.933182 
	C298.733124,110.848961 300.101105,110.753143 302.272461,110.601051 
	C302.272461,117.293190 302.272461,123.514374 302.272461,129.735565 
	C311.284058,115.348801 323.410492,107.782051 340.252716,108.546364 
	C357.472595,109.327805 367.614563,118.921165 372.804718,135.725143 
	C374.002625,133.306686 374.861420,131.630524 375.670502,129.930725 
	C384.909729,110.520294 408.753326,102.500832 427.896179,112.336037 
	C435.806091,116.399971 440.588318,122.991592 442.946594,131.332962 
	C444.253448,135.955383 445.650269,140.757782 445.705078,145.494141 
	C445.982452,169.456039 445.832672,193.422897 445.832672,217.743118 
	C444.428101,217.837982 443.019836,217.933105 441.363495,218.044968 
	C441.218048,216.854553 441.001526,215.904190 441.000549,214.953613 
	C440.980469,195.290817 441.262482,175.622116 440.844147,155.968201 
	C440.682892,148.393600 439.738617,140.632767 437.730927,133.348206 
	C434.764313,122.584442 426.874237,116.441048 415.783508,114.920685 
	C386.830627,110.951729 375.087341,132.745270 374.581268,151.738602 
	C374.044403,171.886993 374.460541,192.060791 374.460480,212.223495 
	C374.460449,214.031876 374.460480,215.840256 374.460480,217.825134 
	C372.528229,217.825134 371.054810,217.825134 368.984528,217.825134 
	C368.984528,202.394775 368.984528,186.947388 368.984528,171.000000 
z"/>
<path fill="#666666" opacity="1.000000" stroke="none" 
	d="
M205.208771,219.026062 
	C185.665207,212.848206 176.605316,192.396698 186.456085,176.699966 
	C192.333084,167.335251 201.581528,162.034439 212.206863,160.157898 
	C220.659317,158.665131 229.390137,158.621872 238.010971,158.250748 
	C244.476181,157.972397 250.962982,158.195770 258.649719,158.195770 
	C258.100342,149.666992 258.323883,141.337997 256.831360,133.328796 
	C255.376846,125.523560 249.626343,120.179810 242.224854,117.445648 
	C230.550812,113.133179 218.709793,113.208160 207.206833,118.188828 
	C199.683212,121.446495 195.253922,127.384499 193.562866,135.491562 
	C193.257584,136.955093 191.568481,138.129990 190.518250,139.438126 
	C189.939316,137.814621 188.776749,136.153549 188.878448,134.573853 
	C189.436417,125.905685 194.131592,119.388138 201.260681,115.153259 
	C216.972061,105.820244 233.305634,105.806175 249.250946,114.432167 
	C260.458710,120.495277 263.620300,131.378662 263.757599,143.258301 
	C263.944305,159.411865 263.641693,175.571503 263.870056,191.723984 
	C263.991699,200.326675 264.789398,208.919800 265.295197,217.748001 
	C264.389130,217.748001 262.644379,217.748001 260.455078,217.748001 
	C259.493347,211.995407 258.549622,206.350708 257.548279,200.361191 
	C244.144409,217.473465 226.308228,222.319763 205.208771,219.026062 
M258.197449,178.459045 
	C258.197449,173.700714 258.197449,168.942398 258.197449,164.180496 
	C244.602005,164.180496 231.635773,163.649979 218.748474,164.427536 
	C213.173325,164.763916 207.461273,167.195557 202.338043,169.737045 
	C192.086212,174.822662 187.499603,184.262405 189.222824,194.790146 
	C190.822708,204.564331 199.183426,212.733932 209.909622,214.257141 
	C222.627869,216.063248 234.496918,213.041306 244.805511,205.556290 
	C253.454346,199.276382 259.508850,191.099625 258.197449,178.459045 
z"/>
<path fill="#5D5D5D" opacity="1.000000" stroke="none" 
	d="
M45.998890,187.000000 
	C45.998890,195.656540 45.998890,203.813065 45.998890,212.481995 
	C71.832359,212.481995 97.415215,212.481995 123.337608,212.481995 
	C123.534500,214.371140 123.682091,215.787262 123.872597,217.615128 
	C96.182732,217.615128 68.790596,217.615128 41.038319,217.615128 
	C41.038319,169.977539 41.038319,122.275276 41.038319,74.252945 
	C42.489525,74.161888 43.916767,74.072342 45.998890,73.941696 
	C45.998890,111.639442 45.998890,149.069717 45.998890,187.000000 
z"/>
<path fill="#333333" opacity="1.000000" stroke="none" 
	d="
M775.873535,85.104187 
	C767.081848,85.104820 758.780640,85.104820 750.188599,85.104820 
	C750.188599,78.061363 750.188599,71.315727 750.188599,64.230370 
	C759.517456,64.230370 768.931335,64.230370 779.093994,64.230370 
	C779.093994,70.418716 779.171753,76.834763 778.974670,83.242348 
	C778.954773,83.888908 777.274048,84.484375 775.873535,85.104187 
z"/>
<path fill="#333333" opacity="1.000000" stroke="none" 
	d="
M990.296326,76.978226 
	C990.296387,79.788971 990.296387,82.104370 990.296387,84.762039 
	C980.777710,84.762039 971.440857,84.762039 961.902344,84.762039 
	C961.902344,77.868866 961.902344,71.145386 961.902344,64.158310 
	C971.289368,64.158310 980.497742,64.158310 990.296265,64.158310 
	C990.296265,68.314468 990.296265,72.398682 990.296326,76.978226 
z"/>
<path fill="#5D5D5D" opacity="1.000000" stroke="none" 
	d="
M155.998184,210.911072 
	C155.998184,213.375031 155.998184,215.351273 155.998184,217.658600 
	C154.215500,217.658600 152.690186,217.658600 150.920807,217.658600 
	C150.920807,182.146957 150.920807,146.793732 150.920807,111.077927 
	C152.405182,110.922485 153.813019,110.775047 155.998184,110.546211 
	C155.998184,144.066025 155.998184,177.244690 155.998184,210.911072 
z"/>
<path fill="#5D5D5D" opacity="1.000000" stroke="none" 
	d="
M155.990250,66.226822 
	C155.996384,69.996422 155.996384,73.290855 155.996384,76.837372 
	C154.201706,76.837372 152.797287,76.837372 151.030243,76.837372 
	C151.030243,72.739418 151.030243,68.676247 151.030243,63.343029 
	C152.942429,64.272751 154.463272,65.012207 155.990250,66.226822 
z"/>
<path fill="#FCFCFC" opacity="1.000000" stroke="none" 
	d="
M660.786804,148.916077 
	C665.152710,134.232529 673.448120,128.689987 685.598877,132.026611 
	C693.413818,134.172623 697.709412,139.779099 697.709473,147.833527 
	C697.709595,158.975372 697.709595,170.117233 697.709473,181.259079 
	C697.709473,190.468689 692.742310,195.958710 683.547302,196.912369 
	C668.503967,198.472610 660.922607,192.311996 659.470276,175.549591 
	C658.721008,166.901489 660.197571,158.060532 660.786804,148.916077 
z"/>
<path fill="#FDFDFD" opacity="1.000000" stroke="none" 
	d="
M541.996338,195.209106 
	C531.756897,191.152115 526.059387,183.362000 524.262817,173.480591 
	C520.943665,155.224792 520.692078,136.656097 524.268188,118.457603 
	C528.114990,98.881332 546.926697,89.492859 565.311707,96.995323 
	C575.868958,101.303474 581.393677,110.098221 583.212280,120.587082 
	C586.175720,137.679779 586.632507,155.119919 583.000488,172.123306 
	C578.604004,192.706039 562.689392,201.304443 541.996338,195.209106 
z"/>
<path fill="#FCFCFC" opacity="1.000000" stroke="none" 
	d="
M1068.739014,134.076477 
	C1074.166138,139.355042 1075.598389,145.634415 1075.179199,152.926453 
	C1063.448364,152.926453 1051.770508,152.926453 1040.088745,152.926453 
	C1040.175537,135.613297 1054.124268,126.300102 1068.739014,134.076477 
z"/>
<path fill="#FEFEFE" opacity="1.000000" stroke="none" 
	d="
M258.197510,178.949051 
	C259.508850,191.099625 253.454346,199.276382 244.805511,205.556290 
	C234.496918,213.041306 222.627869,216.063248 209.909622,214.257141 
	C199.183426,212.733932 190.822708,204.564331 189.222824,194.790146 
	C187.499603,184.262405 192.086212,174.822662 202.338043,169.737045 
	C207.461273,167.195557 213.173325,164.763916 218.748474,164.427536 
	C231.635773,163.649979 244.602005,164.180496 258.197449,164.180496 
	C258.197449,168.942398 258.197449,173.700714 258.197510,178.949051 
z"/>
</svg>